<?xml version="1.0" standalone="no"?>
<!DOCTYPE svg PUBLIC "-//W3C//DTD SVG 20010904//EN"
 "http://www.w3.org/TR/2001/REC-SVG-20010904/DTD/svg10.dtd">
<svg version="1.0" xmlns="http://www.w3.org/2000/svg"
 width="489.000000pt" height="489.000000pt" viewBox="0 0 489.000000 489.000000"
 preserveAspectRatio="xMidYMid meet">
<metadata>
Created by potrace 1.14, written by Peter Selinger 2001-2017
</metadata>
<g transform="translate(0.000000,489.000000) scale(0.100000,-0.100000)"
fill="#000000" stroke="none">
<path d="M1733 3710 c-59 -36 -87 -104 -70 -172 11 -45 111 -164 135 -161 10
2 12 0 4 -3 -12 -6 26 -62 77 -115 9 -9 32 -36 50 -59 19 -23 40 -48 46 -54 6
-6 21 -26 34 -44 13 -19 29 -31 37 -28 7 3 11 0 8 -7 -2 -7 3 -22 13 -32 10
-11 34 -40 54 -65 20 -25 49 -58 63 -73 15 -16 34 -40 43 -54 16 -25 16 -25
-2 -20 -11 3 -63 9 -115 13 -107 8 -122 9 -235 19 -43 4 -100 8 -125 10 -99 8
-186 17 -208 20 -15 3 -20 0 -15 -8 5 -9 3 -9 -8 -1 -8 6 -23 11 -34 12 -11 1
-29 3 -40 6 -11 2 -26 -2 -34 -8 -11 -8 -13 -8 -8 1 5 8 0 11 -13 10 -11 -1
-20 -6 -20 -12 0 -5 -4 -5 -8 2 -5 9 -16 7 -40 -9 -17 -11 -29 -25 -25 -31 3
-5 1 -7 -4 -4 -6 4 -18 -5 -27 -19 -36 -54 -27 -148 17 -179 12 -8 17 -15 12
-15 -11 -1 36 -29 48 -30 5 0 5 6 1 13 -4 6 1 4 12 -5 11 -10 30 -16 42 -13
12 2 24 0 27 -6 4 -5 14 -5 27 2 15 8 19 8 14 0 -10 -16 56 -14 73 2 8 7 11 7
8 1 -4 -7 2 -14 14 -17 16 -4 19 -2 15 11 -6 16 -5 16 7 0 8 -9 22 -17 33 -17
10 1 44 -2 74 -5 30 -3 87 -8 125 -11 39 -4 97 -9 130 -12 33 -3 88 -7 122 -7
35 -1 63 -4 63 -7 0 -3 28 -7 62 -8 34 -1 64 -4 67 -6 3 -1 49 -6 102 -10 53
-3 105 -8 115 -9 22 -3 23 -23 10 -176 -4 -52 -8 -123 -9 -157 -1 -35 -5 -63
-8 -63 -3 0 -6 -12 -6 -27 0 -16 -4 -66 -8 -113 -5 -47 -9 -115 -9 -152 -1
-36 -4 -64 -8 -61 -5 2 -8 -3 -8 -11 0 -9 6 -16 13 -16 9 0 9 -2 0 -8 -7 -4
-14 -43 -17 -95 -3 -48 -8 -91 -11 -97 -3 -5 0 -10 7 -10 10 0 10 -2 0 -8 -8
-6 -13 -39 -14 -98 -2 -77 0 -94 20 -126 37 -60 107 -84 176 -61 36 13 96 65
94 82 0 3 1 8 2 11 4 12 9 46 15 118 4 42 9 93 11 112 2 19 5 77 8 128 3 51 7
96 10 100 3 5 7 55 10 111 3 57 7 106 10 109 3 3 0 12 -7 20 -9 13 -9 14 1 8
9 -5 12 3 13 31 2 81 5 118 11 123 5 4 42 -37 143 -159 11 -13 29 -34 40 -46
11 -13 34 -41 52 -62 18 -21 42 -50 55 -65 13 -15 37 -43 53 -64 17 -20 35
-42 40 -48 6 -6 51 -60 100 -119 49 -60 102 -115 117 -123 65 -34 152 -9 202
59 24 33 23 -67 11 1072 -4 389 -11 676 -16 699 -14 50 -55 91 -107 105 -34
10 -128 28 -287 56 -16 3 -86 17 -155 30 -69 13 -141 27 -160 30 -19 3 -42 8
-50 10 -8 2 -31 7 -50 10 -19 3 -96 17 -170 31 -188 35 -275 51 -345 64 -33 6
-80 15 -105 20 -46 10 -78 16 -140 26 -19 3 -66 12 -103 20 -92 19 -136 18
-174 -6z m737 -413 c102 -20 199 -38 215 -41 17 -3 41 -8 55 -11 14 -3 41 -8
60 -11 159 -29 244 -46 261 -52 13 -6 -7 -27 -95 -99 -61 -51 -127 -106 -146
-123 -76 -67 -171 -143 -173 -139 -1 2 -18 22 -37 44 -19 22 -53 62 -75 89
-22 27 -45 54 -50 60 -6 6 -70 82 -144 170 l-133 158 39 -5 c21 -3 121 -21
223 -40z m816 -788 c3 -233 7 -430 9 -436 8 -25 -13 -13 -40 22 -14 20 -34 43
-44 53 -9 9 -37 42 -61 72 -25 30 -49 60 -55 66 -5 6 -26 30 -45 54 -19 24
-40 48 -46 54 -5 6 -43 51 -83 100 -67 82 -72 91 -55 103 9 7 37 30 62 50 213
180 348 290 350 288 2 -2 5 -193 8 -426z m-1859 316 c0 -8 -4 -12 -9 -9 -5 3
-6 10 -3 15 9 13 12 11 12 -6z m77 7 c3 -5 -1 -9 -9 -9 -8 0 -12 4 -9 9 3 4 7
8 9 8 2 0 6 -4 9 -8z m86 -16 c0 -2 -7 -7 -16 -10 -8 -3 -12 -2 -9 4 6 10 25
14 25 6z m260 -2 c0 -8 -19 -13 -24 -6 -3 5 1 9 9 9 8 0 15 -2 15 -3z m-320
-24 c0 -5 -5 -10 -11 -10 -5 0 -7 5 -4 10 3 6 8 10 11 10 2 0 4 -4 4 -10z m53
-25 c4 -8 3 -16 -1 -19 -4 -3 -9 4 -9 15 -2 23 3 25 10 4z m-153 -9 c0 -3 -4
-8 -10 -11 -5 -3 -10 -1 -10 4 0 6 5 11 10 11 6 0 10 -2 10 -4z m55 -5 c-9 -8
-36 -10 -30 -2 2 4 11 8 20 8 8 0 13 -3 10 -6z m279 -19 c3 -5 -1 -9 -9 -9 -8
0 -12 4 -9 9 3 4 7 8 9 8 2 0 6 -4 9 -8z m-294 -22 c0 -5 -2 -10 -4 -10 -3 0
-8 5 -11 10 -3 6 -1 10 4 10 6 0 11 -4 11 -10z m76 -16 c1 -9 0 -13 -4 -10 -3
4 -7 14 -8 22 -1 9 0 13 4 10 3 -4 7 -14 8 -22z m34 -40 c0 -8 -19 -13 -24 -6
-3 5 1 9 9 9 8 0 15 -2 15 -3z m86 -9 c-1 -8 -5 -17 -8 -21 -5 -4 -4 16 1 34
3 9 9 -1 7 -13z m98 -21 c3 -8 2 -12 -4 -9 -6 3 -10 10 -10 16 0 14 7 11 14
-7z m-59 -23 c3 -5 2 -12 -3 -15 -5 -3 -9 1 -9 9 0 17 3 19 12 6z m1025 -545
c0 -3 -4 -8 -10 -11 -5 -3 -10 -1 -10 4 0 6 5 11 10 11 6 0 10 -2 10 -4z
m-125 -315 c3 -5 2 -12 -3 -15 -5 -3 -9 1 -9 9 0 17 3 19 12 6z m-90 -11 c-3
-5 -12 -10 -18 -10 -7 0 -6 4 3 10 19 12 23 12 15 0z m-35 -96 c0 -8 -19 -13
-24 -6 -3 5 1 9 9 9 8 0 15 -2 15 -3z m40 -40 c0 -8 -19 -13 -24 -6 -3 5 1 9
9 9 8 0 15 -2 15 -3z m-50 -78 c0 -3 -4 -8 -10 -11 -5 -3 -10 -1 -10 4 0 6 5
11 10 11 6 0 10 -2 10 -4z m114 -7 c3 -2 -9 -5 -26 -6 -18 0 -26 2 -18 7 13 8
36 8 44 -1z m116 -39 c8 -5 11 -10 5 -10 -5 0 -17 5 -25 10 -8 5 -10 10 -5 10
6 0 17 -5 25 -10z m-35 -29 c3 -5 2 -12 -3 -15 -5 -3 -9 1 -9 9 0 17 3 19 12
6z m-205 -25 c0 -2 -8 -10 -17 -17 -16 -13 -17 -12 -4 4 13 16 21 21 21 13z
m90 -26 c0 -5 -2 -10 -4 -10 -3 0 -8 5 -11 10 -3 6 -1 10 4 10 6 0 11 -4 11
-10z m95 1 c-9 -8 -36 -10 -30 -2 2 4 11 8 20 8 8 0 13 -3 10 -6z m-205 -15
c0 -2 -8 -10 -17 -17 -16 -13 -17 -12 -4 4 13 16 21 21 21 13z m110 -20 c0 -3
-4 -8 -10 -11 -5 -3 -10 -1 -10 4 0 6 5 11 10 11 6 0 10 -2 10 -4z m40 -6 c0
-5 -2 -10 -4 -10 -3 0 -8 5 -11 10 -3 6 -1 10 4 10 6 0 11 -4 11 -10z m96 -2
c3 -4 -1 -5 -10 -4 -8 1 -18 5 -22 8 -3 4 1 5 10 4 8 -1 18 -5 22 -8z m-136
-38 c0 -5 -5 -10 -11 -10 -5 0 -7 5 -4 10 3 6 8 10 11 10 2 0 4 -4 4 -10z
m100 -4 c0 -2 -8 -10 -17 -17 -16 -13 -17 -12 -4 4 13 16 21 21 21 13z m-100
-36 c0 -5 -5 -10 -11 -10 -5 0 -7 5 -4 10 3 6 8 10 11 10 2 0 4 -4 4 -10z
m115 1 c-9 -8 -36 -10 -30 -2 2 4 11 8 20 8 8 0 13 -3 10 -6z m-160 -20 c3 -5
2 -12 -3 -15 -5 -3 -9 1 -9 9 0 17 3 19 12 6z"/>
</g>
</svg>
